<svg width="21" height="20" viewBox="0 0 21 20" fill="none" xmlns="http://www.w3.org/2000/svg">
<path d="M14.8537 16.0417H17.0171C17.9862 16.0417 18.7723 15.2074 18.5069 14.2754C17.896 12.1308 16.4528 10.625 14.2287 10.625C13.857 10.625 13.5071 10.6671 13.1793 10.7471M9.437 5.83333C9.437 7.3291 8.22444 8.54167 6.72867 8.54167C5.2329 8.54167 4.02034 7.3291 4.02034 5.83333C4.02034 4.33756 5.2329 3.125 6.72867 3.125C8.22444 3.125 9.437 4.33756 9.437 5.83333ZM16.5203 6.25C16.5203 7.51565 15.4943 8.54167 14.2287 8.54167C12.963 8.54167 11.937 7.51565 11.937 6.25C11.937 4.98435 12.963 3.95833 14.2287 3.95833C15.4943 3.95833 16.5203 4.98435 16.5203 6.25ZM1.79639 15.105C2.44524 12.4889 4.11105 10.625 6.72867 10.625C9.34629 10.625 11.0121 12.4889 11.6609 15.105C11.894 16.0449 11.1124 16.875 10.144 16.875H3.31332C2.34497 16.875 1.56329 16.0449 1.79639 15.105Z" stroke="#0E0B29" stroke-width="1.5" stroke-linecap="round" stroke-linejoin="round"/>
</svg>
