<svg width="25" height="25" viewBox="0 0 25 25" fill="none" xmlns="http://www.w3.org/2000/svg">
<path d="M14.5834 11.4584C14.5834 11.1821 14.6931 10.9172 14.8885 10.7218C15.0838 10.5265 15.3488 10.4167 15.625 10.4167C15.9013 10.4167 16.1663 10.5265 16.3616 10.7218C16.557 10.9172 16.6667 11.1821 16.6667 11.4584V13.5417C16.6667 13.818 16.557 14.083 16.3616 14.2783C16.1663 14.4737 15.9013 14.5834 15.625 14.5834C15.3488 14.5834 15.0838 14.4737 14.8885 14.2783C14.6931 14.083 14.5834 13.818 14.5834 13.5417V11.4584Z" stroke="white" stroke-width="1.5625"/>
<path d="M14.5979 17.7084L15.3791 17.7105V17.7084H14.5979ZM14.5979 7.29175H15.3791V7.28967L14.5979 7.29175ZM15.3729 19.797L15.3791 17.7105L13.8166 17.7063L13.8104 19.7928L15.3729 19.797ZM15.6416 17.448C15.7885 17.448 15.9052 17.5667 15.9052 17.7084H17.4677C17.4677 16.7001 16.6479 15.8855 15.6416 15.8855V17.448ZM15.6416 15.8855C14.6354 15.8855 13.8166 16.7001 13.8166 17.7084H15.3791C15.3791 17.5667 15.4948 17.448 15.6416 17.448V15.8855ZM10.4114 4.948H14.0677V3.3855H10.4114V4.948ZM13.55 20.0522H10.4114V21.6147H13.55V20.0522ZM10.4114 20.0522C8.42081 20.0522 7.00518 20.0501 5.93227 19.9063C4.88018 19.7657 4.27498 19.5011 3.83227 19.0595L2.72914 20.1667C3.51039 20.9459 4.50206 21.2917 5.72498 21.4563C6.92706 21.6178 8.46456 21.6157 10.4125 21.6157L10.4114 20.0522ZM10.4114 3.3855C8.46352 3.3855 6.92602 3.38342 5.72393 3.54487C4.50102 3.70946 3.51039 4.05529 2.72914 4.83446L3.83331 5.94071C4.27498 5.49904 4.88123 5.23446 5.93227 5.09383C7.00518 4.95008 8.42081 4.948 10.4114 4.948V3.3855ZM2.69477 11.3636C3.09685 11.5876 3.36456 12.0136 3.36456 12.5001H4.92706C4.92698 11.9902 4.79081 11.4896 4.53262 11.0499C4.27442 10.6103 3.90355 10.2475 3.45831 9.99904L2.69477 11.3636ZM2.87498 9.39592C2.95623 7.46258 3.21977 6.55112 3.83331 5.94071L2.72914 4.83446C1.65623 5.90529 1.39581 7.37508 1.31248 9.33133L2.87498 9.39592ZM3.36456 12.5001C3.36456 12.9865 3.09685 13.4126 2.69477 13.6376L3.45727 15.0022C3.90286 14.7538 4.27404 14.3909 4.53243 13.951C4.79082 13.5111 4.92706 13.0102 4.92706 12.5001H3.36456ZM1.31352 15.6688C1.39685 17.623 1.65727 19.0959 2.72914 20.1657L3.83331 19.0595C3.21977 18.449 2.95623 17.5365 2.87498 15.6032L1.31352 15.6688ZM21.6354 12.5001C21.6354 12.0136 21.9031 11.5876 22.3052 11.3636L21.5427 9.99904C21.0972 10.2474 20.7262 10.6101 20.4678 11.0498C20.2094 11.4894 20.0731 11.9901 20.0729 12.5001H21.6354ZM23.6864 9.33133C23.6031 7.37717 23.3427 5.90425 22.2708 4.83446L21.1666 5.94071C21.7791 6.55112 22.0437 7.46362 22.125 9.39696L23.6864 9.33133ZM22.3052 13.6376C22.1023 13.5249 21.9332 13.36 21.8155 13.16C21.6977 12.96 21.6355 12.7322 21.6354 12.5001H20.0729C20.0729 13.5772 20.6677 14.5126 21.5427 15.0011L22.3052 13.6376ZM22.125 15.6032C22.0437 17.5365 21.7802 18.449 21.1666 19.0595L22.2708 20.1657C23.3437 19.0959 23.6041 17.624 23.6864 15.6688L22.125 15.6032ZM21.5427 15.0011C21.8385 15.1667 22.0323 15.2751 22.1625 15.3574C22.2271 15.398 22.2562 15.4199 22.2646 15.4261C22.2791 15.4386 22.226 15.4011 22.176 15.3115L23.5406 14.548C23.4685 14.423 23.3734 14.3127 23.2604 14.223C23.1763 14.1548 23.088 14.0922 22.9958 14.0355C22.8218 13.9251 22.5833 13.7928 22.3052 13.6365L21.5427 15.0011ZM23.6864 15.6688C23.6937 15.4907 23.7021 15.3063 23.6958 15.1522C23.6915 14.9414 23.638 14.7345 23.5396 14.548L22.176 15.3105C22.1239 15.2167 22.1312 15.1522 22.1344 15.2209C22.1357 15.2487 22.1357 15.2952 22.1344 15.3605L22.125 15.6032L23.6864 15.6688ZM22.3052 11.3636C22.5833 11.2074 22.8218 11.0751 22.9958 10.9647C23.0872 10.9068 23.1755 10.8442 23.2604 10.7772C23.3731 10.6873 23.4678 10.5771 23.5396 10.4522L22.176 9.68967C22.226 9.59904 22.2791 9.56154 22.2635 9.57404C22.2312 9.59892 22.1975 9.62187 22.1625 9.64279C22.0323 9.72612 21.8396 9.83342 21.5427 9.99904L22.3052 11.3636ZM22.125 9.39696L22.1344 9.63862C22.1357 9.7039 22.1357 9.75043 22.1344 9.77821C22.1312 9.84696 22.1239 9.78237 22.176 9.68862L23.5406 10.4511C23.6386 10.2646 23.6918 10.0577 23.6958 9.84696C23.6995 9.67467 23.696 9.5023 23.6854 9.33029L22.125 9.39696ZM2.69477 13.6365C2.41664 13.7928 2.1781 13.924 2.00414 14.0345C1.91198 14.0912 1.8236 14.1538 1.73956 14.222C1.6269 14.3118 1.53219 14.4231 1.46039 14.548L2.82393 15.3095C2.77393 15.4001 2.72081 15.4376 2.73539 15.4251C2.74477 15.4178 2.77289 15.397 2.83748 15.3563C2.96768 15.273 3.16039 15.1657 3.45727 15.0001L2.69477 13.6365ZM2.87498 15.6022L2.8656 15.3595C2.86404 15.3129 2.86404 15.2664 2.8656 15.2199C2.86873 15.1511 2.87602 15.2157 2.82393 15.3095L1.45935 14.547C1.3613 14.7335 1.30816 14.9404 1.30414 15.1511C1.29789 15.3053 1.30623 15.4897 1.31456 15.6678L2.87498 15.6022ZM3.45727 9.998C3.16143 9.83237 2.96768 9.72404 2.83748 9.64175C2.80212 9.62086 2.76804 9.59791 2.73539 9.573C2.72081 9.5605 2.77393 9.598 2.82393 9.68758L1.45935 10.4511C1.54685 10.6053 1.66248 10.7115 1.73956 10.7761C1.82289 10.8449 1.9156 10.9074 2.00414 10.9636C2.1781 11.074 2.41664 11.2063 2.69477 11.3626L3.45727 9.998ZM1.31248 9.33133C1.30518 9.50946 1.29685 9.69383 1.3031 9.848C1.31039 10.0042 1.33435 10.2303 1.45935 10.4522L2.82393 9.68967C2.87602 9.78342 2.86768 9.848 2.86456 9.77925C2.863 9.73273 2.863 9.68618 2.86456 9.63967L2.87393 9.39696L1.31248 9.33133ZM15.3781 7.28967L15.3698 4.68342L13.8083 4.68862L13.8156 7.29383L15.3781 7.28967ZM15.6406 7.55217C15.6062 7.55244 15.5721 7.54591 15.5403 7.53294C15.5085 7.51998 15.4795 7.50084 15.4551 7.47663C15.4307 7.45242 15.4113 7.42362 15.3981 7.39189C15.3849 7.36016 15.3781 7.32612 15.3781 7.29175H13.8156C13.8156 8.30008 14.6344 9.11467 15.6406 9.11467V7.55217ZM15.9062 7.29175C15.9062 7.43342 15.7896 7.55217 15.6427 7.55217V9.11467C16.6489 9.11467 17.4687 8.30008 17.4687 7.29175H15.9062ZM15.9062 4.70425V7.29175H17.4687V4.70425H15.9062ZM17.1979 4.96779C19.4771 5.02612 20.4989 5.27196 21.1687 5.94071L22.2729 4.83446C21.1135 3.67821 19.4739 3.46362 17.2375 3.40529L17.1979 4.96779ZM17.4687 4.70425C17.4687 4.85008 17.3479 4.97092 17.1979 4.96779L17.2375 3.40529C17.0642 3.40098 16.8918 3.4314 16.7305 3.49474C16.5691 3.55809 16.4221 3.65309 16.298 3.77414C16.174 3.89519 16.0754 4.03985 16.0081 4.19959C15.9408 4.35933 15.9062 4.53092 15.9062 4.70425H17.4687ZM14.0677 4.948C13.9988 4.94772 13.9339 4.92017 13.8853 4.87136C13.8366 4.82255 13.8094 4.75647 13.8094 4.68758L15.3719 4.68342C15.3707 4.3388 15.2331 4.00868 14.989 3.7654C14.7449 3.52211 14.4144 3.3855 14.0698 3.3855L14.0677 4.948ZM17.776 21.5772C19.7291 21.4938 21.2021 21.2334 22.2719 20.1657L21.1666 19.0595C20.5562 19.6699 19.6427 19.9345 17.7114 20.0157L17.776 21.5772ZM15.9062 17.7084V19.7678H17.4687V17.7084H15.9062ZM13.8114 19.7917C13.8114 19.9178 13.8114 20.0147 13.8083 20.097C13.8062 20.1803 13.8021 20.2282 13.7979 20.2584C13.7937 20.2886 13.7927 20.2782 13.8041 20.248C13.8243 20.2036 13.8522 20.163 13.8864 20.1282L14.9896 21.2345C15.1903 21.0269 15.3157 20.7581 15.3458 20.4709C15.3739 20.2657 15.3719 20.0199 15.3729 19.797L13.8114 19.7917ZM13.55 21.6147C13.7729 21.6147 14.0198 21.6167 14.225 21.5886C14.4531 21.5574 14.7437 21.4792 14.9896 21.2345L13.8854 20.1282C13.9209 20.0941 13.9622 20.0666 14.0073 20.047C14.0364 20.0345 14.0469 20.0365 14.0177 20.0397C13.9637 20.0453 13.9095 20.0487 13.8552 20.0501C13.7719 20.0522 13.675 20.0522 13.55 20.0522V21.6147ZM17.7114 20.0157C17.5864 20.0209 17.4896 20.0251 17.4073 20.0261C17.325 20.0272 17.2771 20.0261 17.2489 20.023C17.2208 20.0199 17.2333 20.0178 17.2646 20.0303C17.3031 20.0449 17.3479 20.072 17.3885 20.1095L16.3073 21.2376C16.5614 21.4813 16.8583 21.5543 17.0958 21.5772C17.3062 21.598 17.5531 21.5865 17.776 21.5772L17.7114 20.0157ZM15.9062 19.7678C15.9062 19.9949 15.9041 20.247 15.9333 20.4584C15.9656 20.6938 16.05 20.9907 16.3073 21.2376L17.3885 20.1095C17.4302 20.149 17.4573 20.1938 17.4739 20.2313C17.4864 20.2626 17.4844 20.273 17.4812 20.2438C17.4756 20.1888 17.4721 20.1335 17.4708 20.0782C17.4687 19.9949 17.4687 19.8959 17.4687 19.7678H15.9062Z" fill="white"/>
</svg>
